<svg width="505" height="162" viewBox="0 0 505 162" fill="none" xmlns="http://www.w3.org/2000/svg">
<g clip-path="url(#clip0)">
<path d="M206.21 0V67.64H190.63L190.535 36.67L177.71 67.64H166.405L153.485 37.05V67.64H138V0H151.965L172.2 46.17L192.34 0H206.21Z" fill="#000"/>
<path d="M212.913 0H230.773V67.64H212.913V0Z" fill="#000"/>
<path d="M282.207 67.64L255.132 36.955V67.64H237.272V0H255.132V29.07L281.447 0H302.347L272.422 32.11L303.392 67.64H282.207Z" fill="#000"/>
<path d="M304.347 0H352.607V13.68H321.732V26.41H350.612V40.09H321.732V53.96H352.607V67.64H304.347V0Z" fill="#000"/>
<path d="M124 146.395C127.167 146.712 129.478 146.87 130.935 146.87C133.785 146.87 135.685 146.3 136.635 145.16C137.585 144.02 138.06 141.835 138.06 138.605V76H155.92V138.32C155.92 146.3 154.305 152.158 151.075 155.895C147.845 159.632 142.303 161.5 134.45 161.5C131.347 161.5 127.863 161.215 124 160.645V146.395Z" fill="#000"/>
<path d="M162.505 76H210.765V89.68H179.89V102.41H208.77V116.09H179.89V129.96H210.765V143.64H162.505V76Z" fill="#000"/>
<path d="M217.939 76H265.154V89.965H235.514V102.315H263.254V116.185H235.514V143.64H217.939V76Z" fill="#000"/>
<path d="M271.518 76H318.733V89.965H289.093V102.315H316.833V116.185H289.093V143.64H271.518V76Z" fill="#000"/>
<path d="M325.096 76H373.356V89.68H342.481V102.41H371.361V116.09H342.481V129.96H373.356V143.64H325.096V76Z" fill="#000"/>
<path d="M438.385 143.64H419.48L410.74 121.125C409.727 118.592 407.352 117.325 403.615 117.325H397.155V143.64H379.58V76H411.025C419.195 76 425.339 77.7733 429.455 81.32C433.572 84.8033 435.63 89.8067 435.63 96.33C435.63 100.89 434.395 104.848 431.925 108.205C429.519 111.498 426.099 113.842 421.665 115.235C423.565 115.615 425.275 116.502 426.795 117.895C428.315 119.288 429.519 121.157 430.405 123.5L438.385 143.64ZM408.175 104.025C411.975 104.025 414.73 103.455 416.44 102.315C418.15 101.112 419.005 99.275 419.005 96.805C419.005 94.2083 418.15 92.34 416.44 91.2C414.794 90.06 412.039 89.49 408.175 89.49H396.965V104.025H408.175Z" fill="#000"/>
<path d="M476.753 117.8V143.64H458.798V117.705L430.393 76H450.533L467.633 102.98L485.018 76H505.348L476.753 117.8Z" fill="#000"/>
<rect x="61.8748" y="11" width="21.876" height="87.5041" transform="rotate(45 61.8748 11)" fill="#5A9B55"/>
<rect x="96.4157" y="45.541" width="21.876" height="87.5041" transform="rotate(45 96.4157 45.541)" fill="#C8536A"/>
<rect x="68.8815" y="38.4255" width="21.876" height="87.5041" transform="rotate(45 68.8815 38.4255)" fill="#EBDE65"/>
<rect x="103.531" y="73.0752" width="21.876" height="87.5041" transform="rotate(45 103.531 73.0752)" fill="#4896BE"/>
</g>
<defs>
<clipPath id="clip0">
<rect width="505" height="162" fill="white"/>
</clipPath>
</defs>
</svg>
